<svg width="160" height="152" viewBox="0 0 160 152" fill="none" xmlns="http://www.w3.org/2000/svg">
<path d="M17.972 70C12.924 70 8.66667 68.2573 5.2 64.772C1.73333 61.2867 0 57.02 0 51.972C0 46.924 1.74267 42.6667 5.228 39.2C8.71333 35.7333 12.98 34 18.028 34C23.076 34 27.3333 35.7427 30.8 39.228C34.2667 42.7133 36 46.98 36 52.028C36 57.076 34.2573 61.3333 30.772 64.8C27.2867 68.2667 23.02 70 17.972 70ZM54.972 36C49.924 36 45.6667 34.2573 42.2 30.772C38.7333 27.2867 37 23.02 37 17.972C37 12.924 38.7427 8.66667 42.228 5.2C45.7133 1.73333 49.98 0 55.028 0C60.076 0 64.3333 1.74267 67.8 5.228C71.2667 8.71334 73 12.98 73 18.028C73 23.076 71.2573 27.3333 67.772 30.8C64.2867 34.2667 60.02 36 54.972 36ZM104.972 36C99.924 36 95.6667 34.2573 92.2 30.772C88.7333 27.2867 87 23.02 87 17.972C87 12.924 88.7427 8.66667 92.228 5.2C95.7133 1.73333 99.98 0 105.028 0C110.076 0 114.333 1.74267 117.8 5.228C121.267 8.71334 123 12.98 123 18.028C123 23.076 121.257 27.3333 117.772 30.8C114.287 34.2667 110.02 36 104.972 36ZM141.972 70C136.924 70 132.667 68.2573 129.2 64.772C125.733 61.2867 124 57.02 124 51.972C124 46.924 125.743 42.6667 129.228 39.2C132.713 35.7333 136.98 34 142.028 34C147.076 34 151.333 35.7427 154.8 39.228C158.267 42.7133 160 46.98 160 52.028C160 57.076 158.257 61.3333 154.772 64.8C151.287 68.2667 147.02 70 141.972 70ZM37.2 152C31.6 152 27 149.898 23.4 145.694C19.8 141.491 18 136.527 18 130.8C18 125.2 19.7 120.233 23.1 115.9C26.5 111.567 30.1333 107.4 34 103.4C36.9333 100.467 39.6667 97.3667 42.2 94.1C44.7333 90.8333 47.1333 87.4667 49.4 84C53.2667 78.1333 57.6 72.6667 62.4 67.6C67.2 62.5333 73.0667 60 80 60C86.9333 60 92.8333 62.5333 97.7 67.6C102.567 72.6667 106.933 78.2 110.8 84.2C113.067 87.6667 115.433 91 117.9 94.2C120.367 97.4 123.067 100.467 126 103.4C129.867 107.4 133.5 111.567 136.9 115.9C140.3 120.233 142 125.2 142 130.8C142 136.527 140.2 141.491 136.6 145.694C133 149.898 128.4 152 122.8 152C115.6 152 108.467 151.4 101.4 150.2C94.3333 149 87.2 148.4 80 148.4C72.8 148.4 65.6667 149 58.6 150.2C51.5333 151.4 44.4 152 37.2 152Z" fill="#1C1B1F"/>
</svg>
